<svg width="64" height="41" viewBox="0 0 64 41" fill="none" xmlns="http://www.w3.org/2000/svg">
<path d="M45.5178 13.4122C45.3324 13.2219 45.089 13.1039 44.829 13.0783C44.5689 13.0526 44.3083 13.1209 44.0915 13.2716C43.8747 13.4222 43.7149 13.6459 43.6396 13.9045C43.5642 14.1632 43.5777 14.4408 43.6779 14.6903C43.7781 14.9398 43.9588 15.1457 44.1892 15.273C44.4196 15.4002 44.6855 15.441 44.9417 15.3885C45.198 15.3359 45.4287 15.1931 45.5946 14.9845C45.7605 14.7759 45.8515 14.5142 45.852 14.2441C45.852 14.0895 45.8225 13.9364 45.7652 13.7936C45.7079 13.6509 45.6238 13.5212 45.5178 13.4122Z" fill="#61A568"/>
<path d="M50.3524 10.0718C50.5103 9.90775 50.6177 9.69906 50.6612 9.47199C50.7047 9.24493 50.6822 9.00964 50.5967 8.79575C50.5111 8.58185 50.3663 8.39891 50.1804 8.26995C49.9946 8.14099 49.776 8.07177 49.5521 8.07101C49.3262 8.06664 49.1042 8.13215 48.9145 8.25914C48.7248 8.38614 48.5761 8.56882 48.4875 8.78379C48.3988 8.99875 48.3743 9.23619 48.417 9.46567C48.4597 9.69515 48.5677 9.90622 48.7271 10.0718C48.8325 10.1846 48.9588 10.2742 49.0984 10.3355C49.238 10.3967 49.3881 10.4283 49.5398 10.4283C49.6914 10.4283 49.8415 10.3967 49.9811 10.3355C50.1207 10.2742 50.247 10.1846 50.3524 10.0718Z" fill="#61A568"/>
<path d="M50.2947 18.3439C50.1889 18.2341 50.0632 18.147 49.9248 18.0876C49.7864 18.0281 49.6381 17.9976 49.4882 17.9976C49.3384 17.9976 49.19 18.0281 49.0516 18.0876C48.9132 18.147 48.7875 18.2341 48.6818 18.3439C48.5232 18.508 48.4152 18.717 48.3714 18.9446C48.3277 19.1721 48.3502 19.408 48.4361 19.6223C48.522 19.8367 48.6674 20.0198 48.8539 20.1487C49.0404 20.2776 49.2597 20.3464 49.4841 20.3464C49.7084 20.3464 49.9277 20.2776 50.1143 20.1487C50.3008 20.0198 50.4462 19.8367 50.5321 19.6223C50.6179 19.408 50.6404 19.1721 50.5967 18.9446C50.553 18.717 50.445 18.508 50.2864 18.3439H50.2947Z" fill="#61A568"/>
<path d="M61.1188 8.92423C60.4831 6.56844 59.1766 4.46504 57.3691 2.8877C53.4215 -0.559311 48.2651 -0.704358 42.3127 1.31351C41.1721 1.69487 39.9802 1.88639 38.7816 1.8809H24.5707C23.3735 1.88593 22.183 1.69442 21.0438 1.31351C15.0913 -0.704358 9.93502 -0.559311 5.98733 2.8877C4.17994 4.46586 2.87224 6.56878 2.23352 8.92423C-0.819025 20.1867 -0.860276 29.8622 2.83991 37.5839C4.52293 41.0778 7.12997 41.722 10.4053 40.2843C11.3593 39.8583 12.2574 39.3093 13.0783 38.6504C15.4432 36.7753 17.4197 34.4281 18.8905 31.7478C19.1463 31.2743 19.3938 30.7922 19.6 30.2888C21.2501 26.6584 23.7581 24.5723 27.582 24.9776L31.6782 25.0629L35.7703 24.9776C39.6066 24.5893 42.0817 26.6755 43.7564 30.2888C43.9792 30.7752 44.2102 31.2572 44.4659 31.7308C45.9337 34.4181 47.9105 36.7716 50.2782 38.6504C51.099 39.3093 51.9972 39.8583 52.9512 40.2843C56.2265 41.722 58.8335 41.0778 60.5166 37.5839C64.2167 29.8622 64.1631 20.1867 61.1188 8.92423ZM14.0848 22.1833C12.5606 22.1841 11.0704 21.7174 9.8027 20.8423C8.53497 19.9672 7.54668 18.7229 6.96283 17.2668C6.37897 15.8107 6.22579 14.2082 6.52265 12.6621C6.8195 11.116 7.55307 9.69563 8.63055 8.58071C9.70804 7.46579 11.081 6.70639 12.5759 6.39855C14.0708 6.09072 15.6203 6.24828 17.0286 6.85132C18.4368 7.45435 19.6405 8.47577 20.4874 9.78637C21.3343 11.097 21.7863 12.6379 21.7863 14.2142C21.7852 16.3266 20.9736 18.3523 19.5297 19.8464C18.0857 21.3405 16.1274 22.181 14.0848 22.1833V22.1833ZM30.0942 22.1491H26.5095V20.5067H30.0942V22.1491ZM36.8469 22.1491H33.2623V20.5067H36.8469V22.1491ZM47.4071 7.03008C47.9763 6.44236 48.7478 6.11227 49.5521 6.11227C50.3565 6.11227 51.128 6.44236 51.6972 7.03008V7.03008C52.1209 7.46873 52.4093 8.02744 52.526 8.63559C52.6428 9.24375 52.5825 9.87404 52.353 10.4468C52.1234 11.0196 51.7348 11.5091 51.2363 11.8535C50.7377 12.1979 50.1517 12.3817 49.5521 12.3817C48.9526 12.3817 48.3666 12.1979 47.868 11.8535C47.3695 11.5091 46.9809 11.0196 46.7513 10.4468C46.5217 9.87404 46.4615 9.24375 46.5782 8.63559C46.695 8.02744 46.9834 7.46873 47.4071 7.03008V7.03008ZM42.5725 16.4624C42.0036 15.8741 41.684 15.0761 41.684 14.244C41.684 13.412 42.0036 12.614 42.5725 12.0257C43.1414 11.4373 43.913 11.1068 44.7176 11.1068C45.5221 11.1068 46.2937 11.4373 46.8626 12.0257V12.0257C47.1443 12.317 47.3677 12.6628 47.5202 13.0435C47.6726 13.4241 47.7511 13.8321 47.7511 14.244C47.7511 14.656 47.6726 15.064 47.5202 15.4446C47.3677 15.8253 47.1443 16.1711 46.8626 16.4624C46.5809 16.7537 46.2465 16.9848 45.8784 17.1425C45.5104 17.3002 45.1159 17.3813 44.7176 17.3813C43.913 17.3813 43.1414 17.0508 42.5725 16.4624ZM51.6477 21.4026C51.1505 21.9191 50.4954 22.2412 49.7942 22.3139C49.093 22.3867 48.3891 22.2056 47.8026 21.8015C47.216 21.3975 46.7832 20.7955 46.578 20.0983C46.3727 19.4011 46.4077 18.6518 46.677 17.9783C46.9462 17.3048 47.4331 16.7487 48.0545 16.405C48.676 16.0613 49.3934 15.9512 50.0846 16.0935C50.7758 16.2358 51.3978 16.6216 51.8446 17.1853C52.2914 17.7489 52.5352 18.4554 52.5346 19.1842C52.5347 19.5968 52.4556 20.0054 52.302 20.3862C52.1483 20.767 51.9231 21.1124 51.6394 21.4026H51.6477ZM56.4823 16.4027C56.0576 16.8417 55.5166 17.1407 54.9277 17.2618C54.3388 17.3829 53.7284 17.3206 53.1737 17.083C52.619 16.8453 52.1449 16.4428 51.8113 15.9265C51.4777 15.4102 51.2997 14.8032 51.2997 14.1822C51.2997 13.5612 51.4777 12.9542 51.8113 12.4379C52.1449 11.9215 52.619 11.5191 53.1737 11.2814C53.7284 11.0438 54.3388 10.9815 54.9277 11.1026C55.5166 11.2237 56.0576 11.5227 56.4823 11.9617V11.9617C57.0497 12.5522 57.3675 13.3514 57.3659 14.184C57.3644 15.0165 57.0436 15.8144 56.474 16.4027H56.4823Z" fill="#61A568"/>
<path d="M14.0848 8.21167C12.9369 8.21167 11.8148 8.5637 10.8603 9.22326C9.90587 9.88281 9.16196 10.8203 8.72268 11.9171C8.28339 13.0138 8.16845 14.2207 8.3924 15.3851C8.61634 16.5494 9.16912 17.619 9.98082 18.4584C10.7925 19.2979 11.8267 19.8695 12.9525 20.1011C14.0784 20.3327 15.2454 20.2139 16.3059 19.7596C17.3665 19.3053 18.2729 18.5359 18.9107 17.5488C19.5484 16.5617 19.8888 15.4012 19.8888 14.2141C19.8877 12.6225 19.2759 11.0964 18.1877 9.97098C17.0994 8.84556 15.6238 8.2128 14.0848 8.21167ZM18.9813 14.2567C18.9813 14.517 18.8813 14.7665 18.7034 14.9505C18.5255 15.1346 18.2842 15.2379 18.0325 15.2379H15.0212V18.3437C15.0053 18.5933 14.8982 18.8273 14.7217 18.9982C14.5451 19.1692 14.3123 19.2643 14.0704 19.2643C13.8285 19.2643 13.5957 19.1692 13.4191 18.9982C13.2426 18.8273 13.1355 18.5933 13.1196 18.3437V15.2294H10.1248C9.87315 15.2294 9.63183 15.126 9.4539 14.942C9.27597 14.758 9.17601 14.5084 9.17601 14.2482C9.17601 13.988 9.27597 13.7384 9.4539 13.5544C9.63183 13.3704 9.87315 13.267 10.1248 13.267H13.132V10.1527C13.1234 10.0182 13.1416 9.8832 13.1855 9.75619C13.2294 9.62919 13.298 9.51286 13.3872 9.41441C13.4763 9.31595 13.584 9.23747 13.7037 9.18381C13.8233 9.13016 13.9524 9.10247 14.0828 9.10247C14.2132 9.10247 14.3422 9.13016 14.4619 9.18381C14.5815 9.23747 14.6892 9.31595 14.7784 9.41441C14.8675 9.51286 14.9361 9.62919 14.9801 9.75619C15.024 9.8832 15.0422 10.0182 15.0336 10.1527V13.267H18.0449C18.2958 13.2704 18.5352 13.3764 18.7107 13.5619C18.8862 13.7474 18.9835 13.9972 18.9813 14.2567Z" fill="#61A568"/>
<path d="M54.329 13.011C54.0664 13.0111 53.812 13.1054 53.6091 13.2778C53.4063 13.4502 53.2675 13.69 53.2165 13.9564C53.1656 14.2228 53.2055 14.4992 53.3296 14.7385C53.4537 14.9778 53.6541 15.1652 53.8969 15.2687C54.1396 15.3723 54.4096 15.3855 54.6607 15.3062C54.9118 15.2269 55.1286 15.0599 55.2739 14.8338C55.4193 14.6077 55.4844 14.3364 55.458 14.0663C55.4316 13.7961 55.3154 13.5437 55.1292 13.3523C54.9161 13.1344 54.6287 13.0118 54.329 13.011Z" fill="#61A568"/>
</svg>
